<?xml version="1.0" encoding="UTF-8"?>
<svg id="Capa_1" data-name="Capa 1" xmlns="http://www.w3.org/2000/svg" viewBox="0 0 595.28 129.78">
  <defs>
    <style>
      .cls-1 {
        fill: #ff6903;
      }
    </style>
  </defs>
  <g>
    <path class="cls-1" d="m146.44,89.04h9.87c.85,0,1.54-.67,1.54-1.5s-.69-1.5-1.54-1.5h-9.87c-.85,0-1.54.67-1.54,1.5s.69,1.5,1.54,1.5Z"/>
    <path class="cls-1" d="m160.75,91.54c0-.83-.69-1.5-1.54-1.5h-9.87c-.85,0-1.54.67-1.54,1.5s.69,1.5,1.54,1.5h9.87c.85,0,1.54-.67,1.54-1.5Z"/>
    <path class="cls-1" d="m146.44,97.04h9.87c.85,0,1.54-.67,1.54-1.5s-.69-1.5-1.54-1.5h-9.87c-.85,0-1.54.67-1.54,1.5s.69,1.5,1.54,1.5Z"/>
    <path class="cls-1" d="m159.59,33.84c0-.83-.69-1.5-1.54-1.5s-1.54.67-1.54,1.5v6.51c0,.83.69,1.5,1.54,1.5s1.54-.67,1.54-1.5v-6.51Z"/>
    <path class="cls-1" d="m161.73,35.33c-.85,0-1.54.67-1.54,1.5v6.51c0,.83.69,1.5,1.54,1.5s1.54-.67,1.54-1.5v-6.51c0-.83-.69-1.5-1.54-1.5Z"/>
    <path class="cls-1" d="m171.58,37.83v15.26h-16.47c-.85,0-1.54.67-1.54,1.5s.69,1.5,1.54,1.5h18.01c.85,0,1.54-.67,1.54-1.5v-16.76c1.59-.61,2.67-2.11,2.67-3.78,0-2.25-1.89-4.08-4.21-4.08s-4.21,1.83-4.21,4.08c0,1.67,1.08,3.17,2.67,3.78Zm.4-3.78c0-.59.51-1.08,1.14-1.08s1.14.48,1.14,1.08-.51,1.08-1.14,1.08-1.14-.48-1.14-1.08Z"/>
    <path class="cls-1" d="m189.19,55.02v6.62h-39.84c-.85,0-1.54.67-1.54,1.5s.69,1.5,1.54,1.5h41.38c.85,0,1.54-.67,1.54-1.5v-8.12c1.59-.61,2.67-2.11,2.67-3.78,0-2.25-1.89-4.08-4.21-4.08s-4.21,1.83-4.21,4.08c0,1.67,1.08,3.17,2.67,3.78Zm.4-3.78c0-.59.51-1.08,1.14-1.08s1.14.48,1.14,1.08-.51,1.08-1.14,1.08-1.14-.48-1.14-1.08Z"/>
    <path class="cls-1" d="m193.4,65.32c-1.71,0-3.27,1.04-3.9,2.58h-40.16c-.85,0-1.54.67-1.54,1.5s.69,1.5,1.54,1.5h40.16c.63,1.54,2.18,2.58,3.9,2.58,2.32,0,4.21-1.83,4.21-4.08s-1.89-4.08-4.21-4.08Zm0,3c.63,0,1.14.48,1.14,1.08s-.51,1.08-1.14,1.08-1.14-.48-1.14-1.08.51-1.08,1.14-1.08Z"/>
    <path class="cls-1" d="m185.72,82.68c-1.71,0-3.27,1.04-3.9,2.58h-7.17v-8.58c0-.83-.69-1.5-1.54-1.5h-18.01c-.85,0-1.54.67-1.54,1.5s.69,1.5,1.54,1.5h16.47v8.58c0,.83.69,1.5,1.54,1.5h8.71c.63,1.54,2.18,2.58,3.9,2.58,2.32,0,4.21-1.83,4.21-4.08s-1.89-4.08-4.21-4.08Zm0,3c.63,0,1.14.48,1.14,1.08s-.51,1.08-1.14,1.08-1.14-.48-1.14-1.08.51-1.08,1.14-1.08Z"/>
    <path class="cls-1" d="m160.01,99.68c-1.14,0-2.19.6-2.75,1.54-8.06-.28-15.89-3.16-22.11-8.13,0-.12-.02-.23-.05-.35-.79-2.95,1.34-5.55,2.29-6.53.61-.63,1.33-1.19,2.03-1.73,1.42-1.1,2.9-2.25,3.61-4.05.12-.32.23-.66.33-1.02.23-.78.46-1.59,1.01-2.06.61-.52,1.98-.27,2.72.11.33.17.51.51.72.9l.08.15c.29.54.65,1.18,1.08,1.8.91,1.3,1.88,2.25,2.99,2.91,3.21,1.91,7.15,1.18,10.02.65.52-.1.92-.41,1.08-.87.18-.5.05-1.09-.31-1.52-.37-.44-.92-.63-1.5-.52-2.7.5-6.06,1.11-8.3-.72-1.03-.84-1.74-2.01-2.3-3.04l-.09-.17c-.27-.5-.54-1.01-.98-1.45-.56-.57-1.32-.97-2.34-1.22-1.89-.48-3.41-.32-4.53.46-1.25.87-1.81,2.22-2.22,3.54l-.07.24c-.17.56-.34,1.09-.64,1.54-.32.47-.81.86-1.43,1.33-1.1.83-2.23,1.69-3.22,2.72-1.75,1.83-2.84,3.94-3.15,6.05-6.55-6.62-10.15-15.25-10.15-24.41,0-2.45.27-4.92.81-7.35,0,0,0,0,0,0,1.81-.62,3,1.06,4.36,3.31.29.48.56.93.82,1.28.76,1.04,1.66,1.96,2.54,2.85l.53.54c.53.54,1,1.03,1.4,1.58.17.23.34.47.5.71.25.37.52.76.82,1.13,1.03,1.23,2.51,1.84,4.05,2.4,2.1.76,3.67.65,4.77-.34,2.4-2.15.57-5.06-.76-7.19-.29-.46-.56-.89-.77-1.28-.33-.62-.71-1.35-1.04-2.12-.21-.49-.5-1.17-.29-1.61.4-.87,1.83-1.06,2.87-1.2l.28-.04c1.85-.26,3.27-.73,4.47-1.5,1.21-.77,2.23-1.79,3.13-3.15.7-1.06,1.16-1.76,2.35-1.83.21-.01.44-.02.67-.03,1.35-.04,3.03-.08,3.92-1.37.92-1.33.54-3.21-.25-4.49-.77-1.26-2.01-2.21-3.67-2.83-1.02-.38-2.08-.52-3.1-.65-.77-.1-1.5-.2-2.22-.39-.38-.1-1.05-.34-1.21-.8-.12-.35.05-.91.2-1.41.09-.29.17-.58.21-.83.4-2.51-.16-4.33-1.63-5.26-.43-.27-.94-.51-1.52-.7,2.79-1.16,5.72-1.98,8.74-2.44v6.23c0,.83.69,1.5,1.54,1.5s1.54-.67,1.54-1.5v-6.51s0-.04,0-.06c.56-.04,1.14-.07,1.73-.08.6.67,1.48,1.07,2.4,1.07,1.75,0,3.17-1.38,3.17-3.08s-1.42-3.08-3.17-3.08c-1.38,0-2.58.86-3.01,2.11-21.48.82-38.25,17.61-38.25,38.39s17.23,37.7,38.47,38.4c.55.99,1.61,1.61,2.79,1.61,1.75,0,3.17-1.38,3.17-3.08s-1.42-3.08-3.17-3.08Zm-14.66-55.38c1.17.85,2.53,1.02,3.85,1.18l.56.07c1.26.17,2.7.42,3.73,1.19.42.31.76.7.98,1.14.21.42.31.91.29.99-.11.07-.45.11-1.03.12h-.48c-.67.03-1.37.05-2.05.23-1.57.41-2.52,1.56-3.23,2.63-.66.98-1.33,1.92-2.38,2.58-1.2.76-2.54,1-3.82,1.18-1.36.19-2.92.54-4.09,1.63-1.18,1.1-1.55,2.7-1,4.39.47,1.45,1.23,2.83,2.04,4.24.25.44.52.87.79,1.3l.35.57c.29.48.6.98.61,1.46,0,.16-.01.38-.13.46-.1.07-.47.21-1.63-.2-1.21-.42-2.36-.89-3.08-1.91-.97-1.38-1.99-2.61-3.12-3.75-1.01-1.02-2.06-2.15-2.93-3.56l-.08-.12c-.8-1.3-1.63-2.65-2.96-3.62-.94-.68-2.04-1.08-3.11-1.13,2.67-8.33,8.39-15.38,16.19-19.91.13.04.25.07.38.08.73.07,1.47.2,2.2.38l.33.08c.5.12,1.07.25,1.4.5.31.24.31.84.31,1.32,0,.6-.14,1.18-.29,1.78l-.09.37c-.43,1.79.09,3.32,1.46,4.31Z"/>
  </g>
  <path class="cls-1" d="m86.53,105.35c-11.17-.35-20.74-3.3-27.63-12.11-2.32-2.96-3.6-6.14.21-8.83,3.54-2.49,6.15-1.07,8.67,2.16,5.55,7.15,15.67,10.09,24.3,7.32,4.81-1.55,8.44-4.37,9.02-9.79.56-5.19-2.52-8.28-6.75-10.25-5.17-2.41-10.59-4.26-15.79-6.61-3.4-1.54-6.84-3.2-9.84-5.38-10.96-7.97-10.75-23.72.24-31.63,10.62-7.64,28.4-6.23,37.65,3,2.6,2.59,4.56,5.44,1.67,8.92-2.45,2.94-5.59,2.57-9.29-.91-5.95-5.6-12.95-7.22-20.28-3.89-2.83,1.28-5.39,4.6-6.58,7.59-1.51,3.77,1.23,6.92,4.49,8.82,3.51,2.04,7.3,3.6,11.02,5.26,3.72,1.66,7.59,3.01,11.23,4.82,10.46,5.19,14.5,12.69,12.75,23.21-1.52,9.14-9.34,16.25-19.64,17.77-1.94.29-3.9.4-5.44.55Z"/>
  <path class="cls-1" d="m251.73,95.72h-36.17l-.18-65.43c0-2.76-2.24-5-5-5s-5,2.24-5,5l.18,70.43c0,2.76,2.24,5,5,5h41.17c2.76,0,5-2.24,5-5s-2.24-5-5-5Z"/>
  <path class="cls-1" d="m393.25,25.44h-54.13c-2.76,0-5,2.24-5,5s2.24,5,5,5h23.03v64.92c0,2.76,2.24,5,5,5s5-2.24,5-5V35.44h21.1c2.76,0,5-2.24,5-5s-2.24-5-5-5Z"/>
  <path class="cls-1" d="m456.89,95.35h-40.28v-24.96h29.38c2.76,0,5-2.24,5-5s-2.24-5-5-5h-29.38v-24.96h40.28c2.76,0,5-2.24,5-5s-2.24-5-5-5h-45.28c-2.76,0-5,2.24-5,5v69.92c0,2.76,2.24,5,5,5,.14,0,.28-.03.42-.04.14.01.28.04.42.04h44.43c2.76,0,5-2.24,5-5s-2.24-5-5-5Z"/>
  <path class="cls-1" d="m525.57,27.16c-1.7-2.14-4.81-2.49-6.95-.79l-39.13,31.14v-25.91c0-2.73-2.21-4.95-4.95-4.95s-4.95,2.22-4.95,4.95v69.18c0,2.73,2.21,4.95,4.95,4.95s4.95-2.21,4.95-4.95v-22.94l36.4,28.09c.9.69,1.96,1.03,3.02,1.03,1.48,0,2.95-.66,3.92-1.92,1.67-2.16,1.27-5.27-.89-6.94l-39.37-30.38,42.22-33.59c2.14-1.7,2.49-4.81.79-6.95Z"/>
  <path class="cls-1" d="m325.97,81.24V30.17c0-2.7-2.09-4.88-4.67-4.88s-4.67,2.19-4.67,4.88v51.23c0,.09.02.18.03.27,0,.09,0,.18,0,.28,0,.05.36,4.98-3.08,9.02-3.47,4.06-9.94,6.21-18.72,6.21-19.82,0-20.66-14.16-20.69-15.81l-.04-51.19c0-2.7-2.09-4.88-4.67-4.88s-4.67,2.19-4.67,4.88l.04,51.23c0,8.83,6.28,25.54,30.03,25.54,11.67,0,20.31-3.19,25.68-9.47,5.68-6.65,5.54-14.47,5.43-16.24Z"/>
</svg>