<svg xmlns="http://www.w3.org/2000/svg" xmlns:xlink="http://www.w3.org/1999/xlink" width="540" zoomAndPan="magnify" viewBox="0 0 404.88 374.999991" height="500" preserveAspectRatio="xMidYMid meet" version="1.0"><defs><clipPath id="d5908b2f22"><path d="M 0 0.0546875 L 404.761719 0.0546875 L 404.761719 374.945312 L 0 374.945312 Z M 0 0.0546875 " clip-rule="nonzero"/></clipPath><clipPath id="21969e9d85"><path d="M 60.039062 45.097656 L 344.953125 45.097656 L 344.953125 330 L 60.039062 330 Z M 60.039062 45.097656 " clip-rule="nonzero"/></clipPath></defs><g clip-path="url(#d5908b2f22)"><path fill="#ffffff" d="M 0 0.0546875 L 404.878906 0.0546875 L 404.878906 374.945312 L 0 374.945312 Z M 0 0.0546875 " fill-opacity="1" fill-rule="nonzero"/><path fill="#ffffff" d="M 0 0.0546875 L 404.878906 0.0546875 L 404.878906 374.945312 L 0 374.945312 Z M 0 0.0546875 " fill-opacity="1" fill-rule="nonzero"/></g><path fill="#ff6903" d="M 148.988281 142.425781 C 146.808594 144.609375 146.808594 148.144531 148.992188 150.324219 C 151.171875 152.503906 154.707031 152.503906 156.886719 150.324219 C 174.320312 132.878906 202.613281 132.859375 220.066406 150.324219 C 222.246094 152.503906 225.78125 152.503906 227.964844 150.324219 C 230.144531 148.144531 230.144531 144.609375 227.964844 142.425781 C 206.1875 120.636719 170.839844 120.5625 148.988281 142.425781 Z M 148.988281 142.425781 " fill-opacity="1" fill-rule="nonzero"/><path fill="#ff6903" d="M 166.136719 157.660156 C 163.957031 159.84375 163.957031 163.378906 166.140625 165.558594 C 168.324219 167.738281 171.855469 167.738281 174.039062 165.554688 C 182.148438 157.441406 195.089844 157.722656 202.917969 165.554688 C 205.09375 167.734375 208.632812 167.738281 210.816406 165.558594 C 212.996094 163.378906 212.996094 159.84375 210.816406 157.660156 C 198.503906 145.339844 178.515625 145.277344 166.136719 157.660156 Z M 166.136719 157.660156 " fill-opacity="1" fill-rule="nonzero"/><path fill="#ff6903" d="M 194.0625 176.328125 C 194.0625 176.695312 194.023438 177.058594 193.953125 177.417969 C 193.882812 177.777344 193.777344 178.125 193.636719 178.464844 C 193.496094 178.804688 193.324219 179.125 193.121094 179.429688 C 192.914062 179.734375 192.683594 180.019531 192.425781 180.277344 C 192.164062 180.535156 191.882812 180.769531 191.578125 180.972656 C 191.273438 181.175781 190.953125 181.347656 190.613281 181.488281 C 190.273438 181.628906 189.925781 181.734375 189.566406 181.804688 C 189.207031 181.878906 188.84375 181.914062 188.476562 181.914062 C 188.109375 181.914062 187.746094 181.878906 187.386719 181.804688 C 187.027344 181.734375 186.679688 181.628906 186.339844 181.488281 C 186 181.347656 185.679688 181.175781 185.375 180.972656 C 185.070312 180.769531 184.789062 180.535156 184.527344 180.277344 C 184.269531 180.019531 184.039062 179.734375 183.832031 179.429688 C 183.628906 179.125 183.457031 178.804688 183.316406 178.464844 C 183.175781 178.125 183.070312 177.777344 183 177.417969 C 182.929688 177.058594 182.890625 176.695312 182.890625 176.328125 C 182.890625 175.960938 182.929688 175.597656 183 175.238281 C 183.070312 174.878906 183.175781 174.53125 183.316406 174.191406 C 183.457031 173.851562 183.628906 173.53125 183.832031 173.226562 C 184.039062 172.921875 184.269531 172.640625 184.527344 172.378906 C 184.789062 172.121094 185.070312 171.890625 185.375 171.683594 C 185.679688 171.480469 186 171.308594 186.339844 171.167969 C 186.679688 171.027344 187.027344 170.921875 187.386719 170.851562 C 187.746094 170.78125 188.109375 170.746094 188.476562 170.746094 C 188.84375 170.746094 189.207031 170.78125 189.566406 170.851562 C 189.925781 170.921875 190.273438 171.027344 190.613281 171.167969 C 190.953125 171.308594 191.273438 171.480469 191.578125 171.683594 C 191.882812 171.890625 192.164062 172.121094 192.425781 172.378906 C 192.683594 172.640625 192.914062 172.921875 193.121094 173.226562 C 193.324219 173.53125 193.496094 173.851562 193.636719 174.191406 C 193.777344 174.53125 193.882812 174.878906 193.953125 175.238281 C 194.023438 175.597656 194.0625 175.960938 194.0625 176.328125 Z M 194.0625 176.328125 " fill-opacity="1" fill-rule="nonzero"/><g clip-path="url(#21969e9d85)"><path fill="#ff6903" d="M 344.835938 100.941406 C 344.835938 70.148438 319.785156 45.097656 288.992188 45.097656 C 262.152344 45.097656 239.652344 64.058594 234.324219 89.511719 C 206.1875 53.839844 153.457031 52.855469 123.644531 85.5625 C 111.414062 98.988281 104.6875 116.503906 104.703125 134.441406 C 103.9375 134.582031 89.074219 133.660156 75.589844 145.246094 C 65.707031 153.742188 60.039062 166.085938 60.039062 179.121094 C 60.039062 203.976562 80.242188 223.796875 104.710938 223.796875 L 132.632812 223.796875 L 132.632812 262.886719 L 120.503906 262.886719 C 118.199219 256.386719 111.992188 251.714844 104.710938 251.714844 C 95.476562 251.714844 87.960938 259.230469 87.960938 268.46875 C 87.960938 277.707031 95.476562 285.222656 104.710938 285.222656 C 111.992188 285.222656 118.199219 280.554688 120.503906 274.054688 L 138.21875 274.054688 C 141.300781 274.054688 143.800781 271.554688 143.800781 268.46875 L 143.800781 223.796875 L 166.140625 223.796875 L 166.140625 307.558594 L 154.011719 307.558594 C 151.707031 301.058594 145.5 296.390625 138.21875 296.390625 C 128.980469 296.390625 121.464844 303.90625 121.464844 313.144531 C 121.464844 322.382812 128.980469 329.894531 138.21875 329.894531 C 145.496094 329.894531 151.707031 325.226562 154.011719 318.726562 L 171.722656 318.726562 C 174.808594 318.726562 177.308594 316.226562 177.308594 313.144531 L 177.308594 223.796875 L 205.230469 223.796875 L 205.230469 313.144531 C 205.230469 316.226562 207.730469 318.726562 210.8125 318.726562 L 228.527344 318.726562 C 230.832031 325.226562 237.039062 329.894531 244.320312 329.894531 C 253.558594 329.894531 261.070312 322.382812 261.070312 313.144531 C 261.070312 303.90625 253.558594 296.390625 244.320312 296.390625 C 237.039062 296.390625 230.832031 301.058594 228.527344 307.558594 L 216.398438 307.558594 L 216.398438 223.796875 L 238.734375 223.796875 L 238.734375 268.46875 C 238.734375 271.554688 241.234375 274.054688 244.320312 274.054688 L 262.03125 274.054688 C 264.339844 280.554688 270.542969 285.222656 277.824219 285.222656 C 287.0625 285.222656 294.578125 277.707031 294.578125 268.46875 C 294.578125 259.230469 287.0625 251.714844 277.824219 251.714844 C 270.546875 251.714844 264.339844 256.386719 262.03125 262.886719 L 249.902344 262.886719 L 249.902344 223.796875 L 266.65625 223.796875 C 303.742188 223.796875 327.988281 184.96875 311.996094 151.824219 C 331.347656 143.039062 344.835938 123.535156 344.835938 100.941406 Z M 104.710938 274.054688 C 101.632812 274.054688 99.128906 271.546875 99.128906 268.46875 C 99.128906 265.390625 101.632812 262.886719 104.710938 262.886719 C 107.792969 262.886719 110.296875 265.390625 110.296875 268.46875 C 110.296875 271.546875 107.792969 274.054688 104.710938 274.054688 Z M 138.21875 318.726562 C 135.140625 318.726562 132.632812 316.222656 132.632812 313.144531 C 132.632812 310.066406 135.140625 307.558594 138.21875 307.558594 C 141.296875 307.558594 143.800781 310.066406 143.800781 313.144531 C 143.800781 316.222656 141.296875 318.726562 138.21875 318.726562 Z M 244.320312 307.558594 C 247.398438 307.558594 249.902344 310.066406 249.902344 313.144531 C 249.902344 316.222656 247.398438 318.726562 244.320312 318.726562 C 241.238281 318.726562 238.734375 316.222656 238.734375 313.144531 C 238.734375 310.066406 241.238281 307.558594 244.320312 307.558594 Z M 277.824219 262.886719 C 280.902344 262.886719 283.410156 265.390625 283.410156 268.46875 C 283.410156 271.546875 280.902344 274.054688 277.824219 274.054688 C 274.746094 274.054688 272.242188 271.546875 272.242188 268.46875 C 272.242188 265.390625 274.746094 262.886719 277.824219 262.886719 Z M 322.765625 107.488281 C 319.28125 108.652344 315.328125 109.605469 311.042969 110.34375 C 311.417969 104.230469 311.433594 97.949219 311.042969 91.539062 C 315.328125 92.277344 319.28125 93.230469 322.765625 94.390625 C 331.773438 97.394531 333.667969 100.460938 333.667969 100.941406 C 333.667969 101.421875 331.773438 104.488281 322.765625 107.488281 Z M 288.992188 145.613281 C 288.515625 145.613281 285.449219 143.71875 282.445312 134.714844 C 281.285156 131.226562 280.328125 127.273438 279.59375 122.992188 C 285.703125 123.363281 291.984375 123.382812 298.394531 122.992188 C 297.660156 127.273438 296.703125 131.226562 295.542969 134.714844 C 292.539062 143.71875 289.472656 145.613281 288.992188 145.613281 Z M 244.320312 100.941406 C 244.320312 100.460938 246.214844 97.394531 255.222656 94.390625 C 258.707031 93.230469 262.660156 92.277344 266.941406 91.539062 C 266.570312 97.648438 266.550781 103.933594 266.941406 110.34375 C 262.660156 109.605469 258.707031 108.652344 255.222656 107.488281 C 246.214844 104.488281 244.320312 101.421875 244.320312 100.941406 Z M 268.105469 121.828125 C 269.242188 129.714844 271.066406 137.039062 273.609375 142.921875 C 261.332031 138.46875 251.519531 128.808594 247.011719 116.328125 C 252.898438 118.871094 260.222656 120.691406 268.105469 121.828125 Z M 278.226562 111.707031 C 277.707031 104.820312 277.675781 97.515625 278.226562 90.175781 C 285.113281 89.65625 292.421875 89.621094 299.761719 90.175781 C 300.277344 97.058594 300.3125 104.367188 299.761719 111.707031 C 296.273438 111.96875 285.566406 112.261719 278.226562 111.707031 Z M 288.992188 56.265625 C 289.472656 56.265625 292.539062 58.160156 295.542969 67.167969 C 296.703125 70.652344 297.660156 74.605469 298.394531 78.890625 C 292.285156 78.519531 286 78.5 279.59375 78.890625 C 280.328125 74.605469 281.285156 70.652344 282.445312 67.167969 C 285.449219 58.160156 288.515625 56.265625 288.992188 56.265625 Z M 330.929688 85.535156 C 325.050781 83 317.746094 81.1875 309.882812 80.050781 C 308.746094 72.191406 306.933594 64.882812 304.402344 59.007812 C 316.660156 63.523438 326.410156 73.273438 330.929688 85.535156 Z M 273.589844 59 C 271.054688 64.878906 269.242188 72.1875 268.105469 80.050781 C 260.238281 81.1875 252.933594 83.003906 247.054688 85.535156 C 251.476562 73.519531 261.03125 63.613281 273.589844 59 Z M 266.65625 212.625 L 104.710938 212.625 C 86.371094 212.625 71.207031 197.75 71.207031 179.121094 C 71.207031 158.59375 89.519531 142.917969 109.730469 145.992188 C 113.328125 146.539062 116.464844 143.558594 116.128906 139.953125 C 112.8125 104.273438 141.121094 73.019531 177.308594 73.019531 C 202.28125 73.019531 224.496094 87.875 234.050781 110.910156 C 239.609375 142.039062 270.269531 162.421875 301.300781 155.414062 C 314.839844 181.066406 296.238281 212.625 266.65625 212.625 Z M 304.402344 142.875 C 306.933594 137 308.746094 129.691406 309.882812 121.828125 C 317.746094 120.695312 325.050781 118.878906 330.929688 116.347656 C 326.410156 128.609375 316.660156 138.355469 304.402344 142.875 Z M 304.402344 142.875 " fill-opacity="1" fill-rule="nonzero"/></g></svg>