<svg xmlns="http://www.w3.org/2000/svg" xmlns:xlink="http://www.w3.org/1999/xlink" width="540" zoomAndPan="magnify" viewBox="0 0 404.88 374.999991" height="500" preserveAspectRatio="xMidYMid meet" version="1.0"><defs><clipPath id="0d839c0744"><path d="M 0 0.0546875 L 404.761719 0.0546875 L 404.761719 374.945312 L 0 374.945312 Z M 0 0.0546875 " clip-rule="nonzero"/></clipPath><clipPath id="3e66a528bd"><path d="M 73.386719 45.097656 L 331.3125 45.097656 L 331.3125 330 L 73.386719 330 Z M 73.386719 45.097656 " clip-rule="nonzero"/></clipPath></defs><g clip-path="url(#0d839c0744)"><path fill="#ffffff" d="M 0 0.0546875 L 404.878906 0.0546875 L 404.878906 374.945312 L 0 374.945312 Z M 0 0.0546875 " fill-opacity="1" fill-rule="nonzero"/><path fill="#ffffff" d="M 0 0.0546875 L 404.878906 0.0546875 L 404.878906 374.945312 L 0 374.945312 Z M 0 0.0546875 " fill-opacity="1" fill-rule="nonzero"/></g><g clip-path="url(#3e66a528bd)"><path fill="#ff6903" d="M 116.164062 111.113281 C 91.367188 117.1875 73.5 139.5 73.5 165.117188 C 73.5 195.46875 98.335938 220.300781 128.6875 220.300781 C 129.9375 220.300781 141.472656 220.460938 141.472656 220.125 C 141.472656 186.457031 168.769531 159.160156 202.4375 159.160156 C 236.175781 159.160156 263.5 186.5625 263.402344 220.300781 L 276.1875 220.300781 C 306.539062 220.300781 331.375 195.46875 331.375 165.117188 C 331.375 134.765625 306.539062 109.933594 276.1875 109.933594 L 247.667969 109.933594 C 247.171875 74.042969 217.929688 45.097656 181.921875 45.097656 C 145.601562 45.097656 116.164062 74.539062 116.164062 111.113281 Z M 202.4375 167.464844 C 231.519531 167.464844 255.097656 191.042969 255.097656 220.125 C 255.097656 249.210938 231.523438 272.785156 202.4375 272.785156 C 173.355469 272.785156 149.777344 249.210938 149.777344 220.125 C 149.777344 191.042969 173.355469 167.464844 202.4375 167.464844 Z M 202.4375 176.277344 C 226.652344 176.277344 246.285156 195.910156 246.285156 220.125 C 246.285156 244.34375 226.652344 263.972656 202.4375 263.972656 C 190.332031 263.972656 179.367188 259.066406 171.433594 251.128906 C 163.5 243.195312 158.589844 232.234375 158.589844 220.125 C 158.589844 195.910156 178.222656 176.277344 202.4375 176.277344 Z M 190.667969 238.28125 C 189.003906 236.714844 188.921875 234.09375 190.492188 232.425781 C 192.058594 230.757812 194.679688 230.679688 196.347656 232.246094 C 198.335938 234.121094 199.597656 235.207031 202.4375 235.207031 C 205.519531 235.207031 208.957031 233.21875 208.957031 229.832031 C 208.957031 226.445312 205.519531 224.457031 202.4375 224.457031 C 194.785156 224.457031 187.613281 218.769531 187.613281 210.773438 C 187.613281 204.402344 192.265625 199.296875 198.226562 197.65625 L 198.171875 195.464844 C 198.121094 193.179688 199.929688 191.285156 202.214844 191.230469 C 204.5 191.175781 206.394531 192.984375 206.449219 195.269531 L 206.507812 197.746094 C 209.699219 198.644531 213.519531 200.570312 215.359375 203.375 C 216.617188 205.28125 216.085938 207.847656 214.175781 209.101562 C 212.269531 210.355469 209.703125 209.824219 208.449219 207.917969 C 207.6875 206.753906 203.820312 205.378906 202.4375 205.378906 C 199.382812 205.378906 195.902344 207.382812 195.902344 210.773438 C 195.902344 214.160156 199.355469 216.148438 202.4375 216.148438 C 210.101562 216.148438 217.261719 221.847656 217.261719 229.832031 C 217.261719 236.191406 212.605469 241.304688 206.65625 242.945312 L 206.703125 244.789062 C 206.757812 247.074219 204.945312 248.96875 202.664062 249.023438 C 200.378906 249.074219 198.480469 247.265625 198.429688 244.984375 L 198.382812 243.03125 C 195.261719 242.214844 192.984375 240.464844 190.667969 238.28125 Z M 202.4375 184.585938 C 222.066406 184.585938 237.976562 200.496094 237.976562 220.125 C 237.976562 239.753906 222.066406 255.667969 202.4375 255.667969 C 192.621094 255.667969 183.738281 251.6875 177.308594 245.257812 C 170.875 238.824219 166.898438 229.941406 166.898438 220.125 C 166.898438 200.496094 182.808594 184.585938 202.4375 184.585938 Z M 206.589844 299.058594 C 213.246094 300.878906 218.132812 306.96875 218.132812 314.199219 C 218.132812 322.867188 211.105469 329.894531 202.4375 329.894531 C 193.769531 329.894531 186.742188 322.867188 186.742188 314.199219 C 186.742188 306.96875 191.632812 300.878906 198.285156 299.058594 L 198.285156 280.949219 C 201.0625 281.136719 203.8125 281.136719 206.589844 280.949219 Z M 296.503906 277 L 275.042969 255.539062 C 274.136719 254.632812 273.738281 253.414062 273.84375 252.230469 L 273.90625 228.609375 L 276.1875 228.609375 C 278.210938 228.609375 280.210938 228.507812 282.183594 228.320312 L 282.121094 250.871094 L 302.375 271.125 C 304.667969 269.816406 307.320312 269.070312 310.144531 269.070312 C 318.816406 269.070312 325.84375 276.097656 325.84375 284.769531 C 325.84375 293.4375 318.8125 300.464844 310.144531 300.464844 C 301.476562 300.464844 294.449219 293.4375 294.449219 284.769531 C 294.449219 281.941406 295.195312 279.289062 296.503906 277 Z M 102.5 271.125 L 122.753906 250.871094 L 122.691406 228.320312 C 124.667969 228.507812 126.664062 228.609375 128.6875 228.609375 L 130.96875 228.609375 L 131.03125 252.230469 C 131.136719 253.414062 130.738281 254.632812 129.832031 255.539062 L 108.371094 277 C 109.679688 279.289062 110.425781 281.941406 110.425781 284.765625 C 110.425781 293.4375 103.398438 300.464844 94.730469 300.464844 C 86.0625 300.464844 79.035156 293.4375 79.035156 284.765625 C 79.035156 276.097656 86.0625 269.070312 94.730469 269.070312 C 97.558594 269.070312 100.207031 269.816406 102.5 271.125 Z M 102.5 271.125 " fill-opacity="1" fill-rule="evenodd"/></g></svg>