<svg xmlns="http://www.w3.org/2000/svg" xmlns:xlink="http://www.w3.org/1999/xlink" width="540" zoomAndPan="magnify" viewBox="0 0 404.88 374.999991" height="500" preserveAspectRatio="xMidYMid meet" version="1.0"><defs><clipPath id="268304b203"><path d="M 0 0.0546875 L 404.761719 0.0546875 L 404.761719 374.945312 L 0 374.945312 Z M 0 0.0546875 " clip-rule="nonzero"/></clipPath><clipPath id="d152a96c99"><path d="M 58.359375 199 L 171 199 L 171 325.460938 L 58.359375 325.460938 Z M 58.359375 199 " clip-rule="nonzero"/></clipPath><clipPath id="3d0e682826"><path d="M 235 199 L 346.273438 199 L 346.273438 325.460938 L 235 325.460938 Z M 235 199 " clip-rule="nonzero"/></clipPath><clipPath id="5e6fbef992"><path d="M 146 37.542969 L 259 37.542969 L 259 164 L 146 164 Z M 146 37.542969 " clip-rule="nonzero"/></clipPath></defs><g clip-path="url(#268304b203)"><path fill="#ffffff" d="M 0 0.0546875 L 404.878906 0.0546875 L 404.878906 374.945312 L 0 374.945312 Z M 0 0.0546875 " fill-opacity="1" fill-rule="nonzero"/><path fill="#ffffff" d="M 0 0.0546875 L 404.878906 0.0546875 L 404.878906 374.945312 L 0 374.945312 Z M 0 0.0546875 " fill-opacity="1" fill-rule="nonzero"/></g><g clip-path="url(#d152a96c99)"><path fill="#ff6903" d="M 133.894531 256.121094 C 141.433594 250.316406 146.296875 241.242188 146.296875 231.023438 C 146.296875 213.566406 132.0625 199.332031 114.601562 199.332031 C 97.09375 199.332031 82.910156 213.566406 82.910156 231.023438 C 82.910156 241.242188 87.769531 250.316406 95.308594 256.121094 C 77.652344 262.417969 63.816406 277.101562 59.101562 296.09375 C 58.507812 297.882812 59.003906 299.914062 60.34375 301.203125 C 74.132812 316.628906 93.871094 325.457031 114.601562 325.457031 C 135.433594 325.457031 155.320312 316.53125 169.109375 300.957031 C 170.199219 299.765625 170.597656 298.03125 170.25 296.492188 C 165.539062 277.296875 151.652344 262.417969 133.894531 256.121094 Z M 92.828125 231.023438 C 92.828125 219.019531 102.601562 209.25 114.601562 209.25 C 126.605469 209.25 136.375 219.019531 136.375 231.023438 C 136.375 243.027344 126.65625 252.746094 114.652344 252.796875 C 114.601562 252.796875 114.601562 252.796875 114.554688 252.796875 C 114.503906 252.796875 114.503906 252.796875 114.453125 252.796875 C 102.550781 252.746094 92.828125 242.976562 92.828125 231.023438 Z M 114.601562 315.539062 C 97.492188 315.539062 81.125 308.542969 69.320312 296.292969 C 75.320312 276.40625 93.472656 262.765625 114.453125 262.714844 C 114.503906 262.714844 114.554688 262.714844 114.601562 262.714844 C 114.652344 262.714844 114.703125 262.714844 114.75 262.714844 C 135.730469 262.765625 153.933594 276.453125 159.882812 296.34375 C 148.082031 308.542969 131.714844 315.539062 114.601562 315.539062 Z M 114.601562 315.539062 " fill-opacity="1" fill-rule="nonzero"/></g><g clip-path="url(#3d0e682826)"><path fill="#ff6903" d="M 346.371094 296.492188 C 341.707031 277.296875 327.820312 262.417969 310.066406 256.121094 C 317.605469 250.316406 322.464844 241.242188 322.464844 231.023438 C 322.464844 213.566406 308.230469 199.332031 290.773438 199.332031 C 273.3125 199.332031 259.078125 213.566406 259.078125 231.023438 C 259.078125 241.242188 263.941406 250.316406 271.480469 256.121094 C 253.820312 262.417969 240.035156 277.101562 235.273438 296.09375 C 234.675781 297.882812 235.171875 299.914062 236.511719 301.203125 C 250.300781 316.628906 270.039062 325.457031 290.773438 325.457031 C 311.601562 325.457031 331.492188 316.53125 345.28125 300.957031 C 346.320312 299.765625 346.769531 298.03125 346.371094 296.492188 Z M 269 231.023438 C 269 219.019531 278.769531 209.25 290.773438 209.25 C 302.773438 209.25 312.546875 219.019531 312.546875 231.023438 C 312.546875 243.027344 302.824219 252.746094 290.820312 252.796875 C 290.773438 252.796875 290.773438 252.796875 290.722656 252.796875 C 290.671875 252.796875 290.671875 252.796875 290.625 252.796875 C 278.71875 252.746094 269 242.976562 269 231.023438 Z M 290.773438 315.539062 C 273.660156 315.539062 257.292969 308.542969 245.488281 296.292969 C 251.492188 276.40625 269.644531 262.765625 290.625 262.714844 C 290.671875 262.714844 290.722656 262.714844 290.773438 262.714844 C 290.820312 262.714844 290.871094 262.714844 290.921875 262.714844 C 311.902344 262.765625 330.101562 276.453125 336.054688 296.34375 C 324.25 308.542969 307.882812 315.539062 290.773438 315.539062 Z M 290.773438 315.539062 " fill-opacity="1" fill-rule="nonzero"/></g><g clip-path="url(#5e6fbef992)"><path fill="#ff6903" d="M 148.476562 139.714844 C 162.265625 155.089844 181.957031 163.917969 202.6875 163.917969 C 223.519531 163.917969 243.40625 154.992188 257.195312 139.417969 C 258.285156 138.226562 258.683594 136.492188 258.335938 134.953125 C 253.671875 115.757812 239.785156 100.878906 222.03125 94.582031 C 229.570312 88.777344 234.429688 79.703125 234.429688 69.484375 C 234.378906 52.027344 220.195312 37.792969 202.6875 37.792969 C 185.179688 37.792969 170.996094 52.027344 170.996094 69.484375 C 170.996094 79.703125 175.855469 88.777344 183.394531 94.582031 C 165.785156 100.878906 151.949219 115.5625 147.1875 134.558594 C 146.59375 136.34375 147.089844 138.425781 148.476562 139.714844 Z M 180.914062 69.484375 C 180.914062 57.484375 190.683594 47.710938 202.6875 47.710938 C 214.691406 47.710938 224.460938 57.484375 224.460938 69.484375 C 224.460938 81.488281 214.738281 91.207031 202.738281 91.257812 C 202.6875 91.257812 202.6875 91.257812 202.636719 91.257812 C 202.589844 91.257812 202.589844 91.257812 202.539062 91.257812 C 190.636719 91.207031 180.914062 81.488281 180.914062 69.484375 Z M 202.539062 101.179688 C 202.589844 101.179688 202.636719 101.179688 202.6875 101.179688 C 202.738281 101.179688 202.785156 101.179688 202.835938 101.179688 C 223.816406 101.226562 242.019531 114.917969 247.96875 134.804688 C 236.164062 147.054688 219.796875 154 202.6875 154 C 185.578125 154 169.210938 147.003906 157.40625 134.753906 C 163.40625 114.917969 181.609375 101.277344 202.539062 101.179688 Z M 202.539062 101.179688 " fill-opacity="1" fill-rule="nonzero"/></g><path fill="#ff6903" d="M 246.628906 235.984375 C 248.464844 235.984375 250.203125 234.992188 251.09375 233.207031 C 251.441406 232.511719 251.589844 231.769531 251.589844 231.023438 C 251.589844 229.1875 250.597656 227.453125 248.8125 226.558594 L 207.648438 206.125 L 207.648438 176.269531 C 207.648438 173.539062 205.414062 171.308594 202.6875 171.308594 C 199.960938 171.308594 197.726562 173.539062 197.726562 176.269531 L 197.726562 206.125 L 156.5625 226.558594 C 154.082031 227.75 153.089844 230.726562 154.328125 233.207031 C 155.570312 235.636719 158.546875 236.679688 160.976562 235.4375 L 202.6875 214.753906 L 244.398438 235.4375 C 245.144531 235.785156 245.886719 235.984375 246.628906 235.984375 Z M 246.628906 235.984375 " fill-opacity="1" fill-rule="nonzero"/></svg>